# xmcd CD database file
#
# Track frame offsets:
#	150
#	19175
#	37838
#	57915
#	79154
#	94299
#	116558
#	141219
#	158019
#	179725
#	205790
#	227396
#	246981
#	264897
#	288984
#	311239
#	334036
#
# Disc length: 4753 seconds
#
# Revision: 2
# Processed by: cddbd v1.5.2PL0 Copyright (c) Steve Scherf et al.
# Submitted via: CDex 1.51
#
DISCID=e9128f11
DTITLE=Verschieden - Anbetung Gold CD2
DYEAR=2007
DGENRE=Christian Pop
TTITLE0=Deine Gnade fällt - Andreas Volz
TTITLE1=Gott ist groß - Sara Lorenz
TTITLE2=Wir wollen dich hoch erhoben sehn - Michael Janz
TTITLE3=Bahnt einen Weg unserm Gott - Holger Petri
TTITLE4=Herr, dein Name sei erhöht - Stephanie Heinen
TTITLE5=Für immer - Linus Kraus
TTITLE6=Herr, öffne du mir die Augen - Johannes Falk
TTITLE7=Entfach dein Feuer in mir - Anja Lehmann
TTITLE8=Ruft zu dem Herrn - Volker Dymel
TTITLE9=Jesus, dein Licht - André Massoli
TTITLE10=Dir gehört mein Lob - Chris Mühlan
TTITLE11=Bis ans Ende der Welt - Anja Lehmann
TTITLE12=In deinen liebenden Armen - Pamela Natterer
TTITLE13=Voll Sehnsucht - Arne Kopfermann
TTITLE14=Wer ist ein gott wie du - Andrea Adams-Frey
TTITLE15=Heilig - Anja Lehmann
TTITLE16=Wunderbarer Hirt - Lothar Kosse
EXTD=www.gerth.de, Art.-Nr. 946362 YEAR: 2007
EXTT0=
EXTT1=
EXTT2=
EXTT3=
EXTT4=
EXTT5=
EXTT6=
EXTT7=
EXTT8=
EXTT9=
EXTT10=
EXTT11=
EXTT12=
EXTT13=
EXTT14=
EXTT15=
EXTT16=
PLAYORDER=
